<svg class="svgoban" xmlns="http://www.w3.org/2000/svg" version="1.1" height="100%" viewBox="37 37 546 546" ><defs><radialGradient id="blackgrad" cx="50%" cy="45%" r="60%" fx="10%" fy="10%" ><stop offset="0%" style="stop-color:rgb(75,75,75);stop-opacity:1" /><stop offset="100%" style="stop-color:rgb(0,0,0);stop-opacity:1" /></radialGradient><radialGradient id="whitegrad" cx="50%" cy="45%" r="60%" fx="10%" fy="10%" ><stop offset="0%" style="stop-color:rgb(255,255,255);stop-opacity:1" /><stop offset="100%" style="stop-color:rgb(180,180,180);stop-opacity:1" /></radialGradient><style type="text/css"><![CDATA[
	    .wood { 
		fill: #b4916c; 
	    }
	    .placeholder { 
		stroke: black;
		opacity: 0 
	    }
    	    .black .placeholder:hover { 
		fill: black;
		stroke: black;
		opacity: 0.2 
	    }
	    .white .placeholder:hover { 
		fill: white;
		stroke: white;
		opacity: 0.2 
	    }
	    .blackstone { 
		fill: url(#blackgrad); 
	    }
	    .whitestone { 
		fill: url(#whitegrad);
	    }
	    .onblack {
		stroke: white;
		fill: none;
	    }
	    .onwhite {
		stroke: black;
		fill: none;
	    }
	line, path {
	    stroke: black; 
	}
	text { 
	    font-family: "Ubuntu Light", sans-serif; 
	    font-size: 1.1em; 
	}
	]]></style></defs><g class="layers"><g class="background_layer"><rect style="" class="wood" x="37" y="37" width="546" height="546" ></rect></g><g class="grid_layer"><path style="stroke-width:1;shape-rendering:crispEdges;vector-effect:non-scaling-stroke;" d="M58 58H 562 M58 86H 562 M58 114H 562 M58 142H 562 M58 170H 562 M58 198H 562 M58 226H 562 M58 254H 562 M58 282H 562 M58 310H 562 M58 338H 562 M58 366H 562 M58 394H 562 M58 422H 562 M58 450H 562 M58 478H 562 M58 506H 562 M58 534H 562 M58 562H 562 M58 58V 562 M86 58V 562 M114 58V 562 M142 58V 562 M170 58V 562 M198 58V 562 M226 58V 562 M254 58V 562 M282 58V 562 M310 58V 562 M338 58V 562 M366 58V 562 M394 58V 562 M422 58V 562 M450 58V 562 M478 58V 562 M506 58V 562 M534 58V 562 M562 58V 562 " ></path></g><g class="starpoints_layer"><circle style="" cx="142" cy="142" r="2.8" ></circle><circle style="" cx="478" cy="142" r="2.8" ></circle><circle style="" cx="142" cy="478" r="2.8" ></circle><circle style="" cx="478" cy="478" r="2.8" ></circle><circle style="" cx="310" cy="310" r="2.8" ></circle><circle style="" cx="310" cy="142" r="2.8" ></circle><circle style="" cx="142" cy="310" r="2.8" ></circle><circle style="" cx="310" cy="478" r="2.8" ></circle><circle style="" cx="478" cy="310" r="2.8" ></circle></g><g class="stones_layer"><circle style="" cx="58" cy="58" r="13.333333333333332" class="stone placeholder A19" ></circle><circle style="" cx="58" cy="86" r="13.333333333333332" class="stone placeholder A18" ></circle><circle style="" cx="58" cy="114" r="13.333333333333332" class="stone placeholder A17" ></circle><circle style="" cx="58" cy="142" r="13.333333333333332" class="stone placeholder A16" ></circle><circle style="" cx="58" cy="170" r="13.333333333333332" class="stone placeholder A15" ></circle><circle style="" cx="58" cy="198" r="13.333333333333332" class="stone placeholder A14" ></circle><circle style="" cx="58" cy="226" r="13.333333333333332" class="stone placeholder A13" ></circle><circle style="" cx="58" cy="254" r="13.333333333333332" class="stone placeholder A12" ></circle><circle style="" cx="58" cy="282" r="13.333333333333332" class="stone placeholder A11" ></circle><circle style="" cx="58" cy="310" r="13.333333333333332" class="stone placeholder A10" ></circle><circle style="" cx="58" cy="338" r="13.333333333333332" class="stone placeholder A9" ></circle><circle style="" cx="58" cy="366" r="13.333333333333332" class="stone placeholder A8" ></circle><circle style="" cx="58" cy="394" r="13.333333333333332" class="stone placeholder A7" ></circle><circle style="" cx="58" cy="422" r="13.333333333333332" class="stone placeholder A6" ></circle><circle style="" cx="58" cy="450" r="13.333333333333332" class="stone placeholder A5" ></circle><circle style="" cx="58" cy="478" r="13.333333333333332" class="stone placeholder A4" ></circle><circle style="" cx="58" cy="506" r="13.333333333333332" class="stone placeholder A3" ></circle><circle style="" cx="58" cy="534" r="13.333333333333332" class="stone placeholder A2" ></circle><circle style="" cx="58" cy="562" r="13.333333333333332" class="stone placeholder A1" ></circle><circle style="" cx="86" cy="58" r="13.333333333333332" class="stone placeholder B19" ></circle><circle style="" cx="86" cy="86" r="13.333333333333332" class="stone placeholder B18" ></circle><circle style="" cx="86" cy="114" r="13.333333333333332" class="stone placeholder B17" ></circle><circle style="" cx="86" cy="142" r="13.333333333333332" class="stone placeholder B16" ></circle><circle style="" cx="86" cy="170" r="13.333333333333332" class="stone placeholder B15" ></circle><circle style="" cx="86" cy="198" r="13.333333333333332" class="stone placeholder B14" ></circle><circle style="" cx="86" cy="226" r="13.333333333333332" class="stone placeholder B13" ></circle><circle style="" cx="86" cy="254" r="13.333333333333332" class="stone placeholder B12" ></circle><circle style="" cx="86" cy="282" r="13.333333333333332" class="stone placeholder B11" ></circle><circle style="" cx="86" cy="310" r="13.333333333333332" class="stone placeholder B10" ></circle><circle style="" cx="86" cy="338" r="13.333333333333332" class="stone placeholder B9" ></circle><circle style="" cx="86" cy="366" r="13.333333333333332" class="stone placeholder B8" ></circle><circle style="" cx="86" cy="394" r="13.333333333333332" class="stone placeholder B7" ></circle><circle style="" cx="86" cy="422" r="13.333333333333332" class="stone placeholder B6" ></circle><circle style="" cx="86" cy="450" r="13.333333333333332" class="stone placeholder B5" ></circle><circle style="" cx="86" cy="478" r="13.333333333333332" class="stone placeholder B4" ></circle><circle style="" cx="86" cy="506" r="13.333333333333332" class="stone placeholder B3" ></circle><circle style="" cx="86" cy="534" r="13.333333333333332" class="stone placeholder B2" ></circle><circle style="" cx="86" cy="562" r="13.333333333333332" class="stone placeholder B1" ></circle><circle style="" cx="114" cy="58" r="13.333333333333332" class="stone placeholder C19" ></circle><circle style="" cx="114" cy="86" r="13.333333333333332" class="stone placeholder C18" ></circle><circle style="" cx="114" cy="114" r="13.333333333333332" class="stone placeholder C17" ></circle><circle style="" cx="114" cy="142" r="13.333333333333332" class="stone placeholder C16" ></circle><circle style="" cx="114" cy="170" r="13.333333333333332" class="stone placeholder C15" ></circle><circle style="" cx="114" cy="198" r="13.333333333333332" class="stone placeholder C14" ></circle><circle style="" cx="114" cy="226" r="13.333333333333332" class="stone placeholder C13" ></circle><circle style="" cx="114" cy="254" r="13.333333333333332" class="stone placeholder C12" ></circle><circle style="" cx="114" cy="282" r="13.333333333333332" class="stone placeholder C11" ></circle><circle style="" cx="114" cy="310" r="13.333333333333332" class="stone placeholder C10" ></circle><circle style="" cx="114" cy="338" r="13.333333333333332" class="stone placeholder C9" ></circle><circle style="" cx="114" cy="366" r="13.333333333333332" class="stone placeholder C8" ></circle><circle style="" cx="114" cy="394" r="13.333333333333332" class="stone placeholder C7" ></circle><circle style="" cx="114" cy="422" r="13.333333333333332" class="stone blackstone C6" ></circle><circle style="" cx="114" cy="450" r="13.333333333333332" class="stone placeholder C5" ></circle><circle style="" cx="114" cy="478" r="13.333333333333332" class="stone placeholder C4" ></circle><circle style="" cx="114" cy="506" r="13.333333333333332" class="stone placeholder C3" ></circle><circle style="" cx="114" cy="534" r="13.333333333333332" class="stone placeholder C2" ></circle><circle style="" cx="114" cy="562" r="13.333333333333332" class="stone placeholder C1" ></circle><circle style="" cx="142" cy="58" r="13.333333333333332" class="stone placeholder D19" ></circle><circle style="" cx="142" cy="86" r="13.333333333333332" class="stone placeholder D18" ></circle><circle style="" cx="142" cy="114" r="13.333333333333332" class="stone placeholder D17" ></circle><circle style="" cx="142" cy="142" r="13.333333333333332" class="stone blackstone D16" ></circle><circle style="" cx="142" cy="170" r="13.333333333333332" class="stone placeholder D15" ></circle><circle style="" cx="142" cy="198" r="13.333333333333332" class="stone placeholder D14" ></circle><circle style="" cx="142" cy="226" r="13.333333333333332" class="stone placeholder D13" ></circle><circle style="" cx="142" cy="254" r="13.333333333333332" class="stone placeholder D12" ></circle><circle style="" cx="142" cy="282" r="13.333333333333332" class="stone placeholder D11" ></circle><circle style="" cx="142" cy="310" r="13.333333333333332" class="stone placeholder D10" ></circle><circle style="" cx="142" cy="338" r="13.333333333333332" class="stone placeholder D9" ></circle><circle style="" cx="142" cy="366" r="13.333333333333332" class="stone placeholder D8" ></circle><circle style="" cx="142" cy="394" r="13.333333333333332" class="stone placeholder D7" ></circle><circle style="" cx="142" cy="422" r="13.333333333333332" class="stone placeholder D6" ></circle><circle style="" cx="142" cy="450" r="13.333333333333332" class="stone placeholder D5" ></circle><circle style="" cx="142" cy="478" r="13.333333333333332" class="stone blackstone D4" ></circle><circle style="" cx="142" cy="506" r="13.333333333333332" class="stone placeholder D3" ></circle><circle style="" cx="142" cy="534" r="13.333333333333332" class="stone placeholder D2" ></circle><circle style="" cx="142" cy="562" r="13.333333333333332" class="stone placeholder D1" ></circle><circle style="" cx="170" cy="58" r="13.333333333333332" class="stone placeholder E19" ></circle><circle style="" cx="170" cy="86" r="13.333333333333332" class="stone placeholder E18" ></circle><circle style="" cx="170" cy="114" r="13.333333333333332" class="stone placeholder E17" ></circle><circle style="" cx="170" cy="142" r="13.333333333333332" class="stone placeholder E16" ></circle><circle style="" cx="170" cy="170" r="13.333333333333332" class="stone placeholder E15" ></circle><circle style="" cx="170" cy="198" r="13.333333333333332" class="stone placeholder E14" ></circle><circle style="" cx="170" cy="226" r="13.333333333333332" class="stone placeholder E13" ></circle><circle style="" cx="170" cy="254" r="13.333333333333332" class="stone placeholder E12" ></circle><circle style="" cx="170" cy="282" r="13.333333333333332" class="stone placeholder E11" ></circle><circle style="" cx="170" cy="310" r="13.333333333333332" class="stone placeholder E10" ></circle><circle style="" cx="170" cy="338" r="13.333333333333332" class="stone placeholder E9" ></circle><circle style="" cx="170" cy="366" r="13.333333333333332" class="stone placeholder E8" ></circle><circle style="" cx="170" cy="394" r="13.333333333333332" class="stone placeholder E7" ></circle><circle style="" cx="170" cy="422" r="13.333333333333332" class="stone placeholder E6" ></circle><circle style="" cx="170" cy="450" r="13.333333333333332" class="stone placeholder E5" ></circle><circle style="" cx="170" cy="478" r="13.333333333333332" class="stone placeholder E4" ></circle><circle style="" cx="170" cy="506" r="13.333333333333332" class="stone blackstone E3" ></circle><circle style="" cx="170" cy="534" r="13.333333333333332" class="stone placeholder E2" ></circle><circle style="" cx="170" cy="562" r="13.333333333333332" class="stone placeholder E1" ></circle><circle style="" cx="198" cy="58" r="13.333333333333332" class="stone placeholder F19" ></circle><circle style="" cx="198" cy="86" r="13.333333333333332" class="stone placeholder F18" ></circle><circle style="" cx="198" cy="114" r="13.333333333333332" class="stone blackstone F17" ></circle><circle style="" cx="198" cy="142" r="13.333333333333332" class="stone placeholder F16" ></circle><circle style="" cx="198" cy="170" r="13.333333333333332" class="stone placeholder F15" ></circle><circle style="" cx="198" cy="198" r="13.333333333333332" class="stone placeholder F14" ></circle><circle style="" cx="198" cy="226" r="13.333333333333332" class="stone placeholder F13" ></circle><circle style="" cx="198" cy="254" r="13.333333333333332" class="stone placeholder F12" ></circle><circle style="" cx="198" cy="282" r="13.333333333333332" class="stone placeholder F11" ></circle><circle style="" cx="198" cy="310" r="13.333333333333332" class="stone placeholder F10" ></circle><circle style="" cx="198" cy="338" r="13.333333333333332" class="stone placeholder F9" ></circle><circle style="" cx="198" cy="366" r="13.333333333333332" class="stone placeholder F8" ></circle><circle style="" cx="198" cy="394" r="13.333333333333332" class="stone placeholder F7" ></circle><circle style="" cx="198" cy="422" r="13.333333333333332" class="stone placeholder F6" ></circle><circle style="" cx="198" cy="450" r="13.333333333333332" class="stone placeholder F5" ></circle><circle style="" cx="198" cy="478" r="13.333333333333332" class="stone whitestone F4" ></circle><circle style="" cx="198" cy="506" r="13.333333333333332" class="stone whitestone F3" ></circle><circle style="" cx="198" cy="534" r="13.333333333333332" class="stone placeholder F2" ></circle><circle style="" cx="198" cy="562" r="13.333333333333332" class="stone placeholder F1" ></circle><circle style="" cx="226" cy="58" r="13.333333333333332" class="stone placeholder G19" ></circle><circle style="" cx="226" cy="86" r="13.333333333333332" class="stone placeholder G18" ></circle><circle style="" cx="226" cy="114" r="13.333333333333332" class="stone placeholder G17" ></circle><circle style="" cx="226" cy="142" r="13.333333333333332" class="stone placeholder G16" ></circle><circle style="" cx="226" cy="170" r="13.333333333333332" class="stone placeholder G15" ></circle><circle style="" cx="226" cy="198" r="13.333333333333332" class="stone placeholder G14" ></circle><circle style="" cx="226" cy="226" r="13.333333333333332" class="stone placeholder G13" ></circle><circle style="" cx="226" cy="254" r="13.333333333333332" class="stone placeholder G12" ></circle><circle style="" cx="226" cy="282" r="13.333333333333332" class="stone placeholder G11" ></circle><circle style="" cx="226" cy="310" r="13.333333333333332" class="stone placeholder G10" ></circle><circle style="" cx="226" cy="338" r="13.333333333333332" class="stone placeholder G9" ></circle><circle style="" cx="226" cy="366" r="13.333333333333332" class="stone placeholder G8" ></circle><circle style="" cx="226" cy="394" r="13.333333333333332" class="stone placeholder G7" ></circle><circle style="" cx="226" cy="422" r="13.333333333333332" class="stone placeholder G6" ></circle><circle style="" cx="226" cy="450" r="13.333333333333332" class="stone placeholder G5" ></circle><circle style="" cx="226" cy="478" r="13.333333333333332" class="stone placeholder G4" ></circle><circle style="" cx="226" cy="506" r="13.333333333333332" class="stone placeholder G3" ></circle><circle style="" cx="226" cy="534" r="13.333333333333332" class="stone placeholder G2" ></circle><circle style="" cx="226" cy="562" r="13.333333333333332" class="stone placeholder G1" ></circle><circle style="" cx="254" cy="58" r="13.333333333333332" class="stone placeholder H19" ></circle><circle style="" cx="254" cy="86" r="13.333333333333332" class="stone placeholder H18" ></circle><circle style="" cx="254" cy="114" r="13.333333333333332" class="stone placeholder H17" ></circle><circle style="" cx="254" cy="142" r="13.333333333333332" class="stone placeholder H16" ></circle><circle style="" cx="254" cy="170" r="13.333333333333332" class="stone placeholder H15" ></circle><circle style="" cx="254" cy="198" r="13.333333333333332" class="stone placeholder H14" ></circle><circle style="" cx="254" cy="226" r="13.333333333333332" class="stone placeholder H13" ></circle><circle style="" cx="254" cy="254" r="13.333333333333332" class="stone placeholder H12" ></circle><circle style="" cx="254" cy="282" r="13.333333333333332" class="stone placeholder H11" ></circle><circle style="" cx="254" cy="310" r="13.333333333333332" class="stone placeholder H10" ></circle><circle style="" cx="254" cy="338" r="13.333333333333332" class="stone placeholder H9" ></circle><circle style="" cx="254" cy="366" r="13.333333333333332" class="stone placeholder H8" ></circle><circle style="" cx="254" cy="394" r="13.333333333333332" class="stone placeholder H7" ></circle><circle style="" cx="254" cy="422" r="13.333333333333332" class="stone placeholder H6" ></circle><circle style="" cx="254" cy="450" r="13.333333333333332" class="stone placeholder H5" ></circle><circle style="" cx="254" cy="478" r="13.333333333333332" class="stone placeholder H4" ></circle><circle style="" cx="254" cy="506" r="13.333333333333332" class="stone placeholder H3" ></circle><circle style="" cx="254" cy="534" r="13.333333333333332" class="stone placeholder H2" ></circle><circle style="" cx="254" cy="562" r="13.333333333333332" class="stone placeholder H1" ></circle><circle style="" cx="282" cy="58" r="13.333333333333332" class="stone placeholder J19" ></circle><circle style="" cx="282" cy="86" r="13.333333333333332" class="stone placeholder J18" ></circle><circle style="" cx="282" cy="114" r="13.333333333333332" class="stone placeholder J17" ></circle><circle style="" cx="282" cy="142" r="13.333333333333332" class="stone placeholder J16" ></circle><circle style="" cx="282" cy="170" r="13.333333333333332" class="stone placeholder J15" ></circle><circle style="" cx="282" cy="198" r="13.333333333333332" class="stone placeholder J14" ></circle><circle style="" cx="282" cy="226" r="13.333333333333332" class="stone placeholder J13" ></circle><circle style="" cx="282" cy="254" r="13.333333333333332" class="stone placeholder J12" ></circle><circle style="" cx="282" cy="282" r="13.333333333333332" class="stone placeholder J11" ></circle><circle style="" cx="282" cy="310" r="13.333333333333332" class="stone placeholder J10" ></circle><circle style="" cx="282" cy="338" r="13.333333333333332" class="stone placeholder J9" ></circle><circle style="" cx="282" cy="366" r="13.333333333333332" class="stone placeholder J8" ></circle><circle style="" cx="282" cy="394" r="13.333333333333332" class="stone placeholder J7" ></circle><circle style="" cx="282" cy="422" r="13.333333333333332" class="stone placeholder J6" ></circle><circle style="" cx="282" cy="450" r="13.333333333333332" class="stone placeholder J5" ></circle><circle style="" cx="282" cy="478" r="13.333333333333332" class="stone placeholder J4" ></circle><circle style="" cx="282" cy="506" r="13.333333333333332" class="stone whitestone J3" ></circle><circle style="" cx="282" cy="534" r="13.333333333333332" class="stone placeholder J2" ></circle><circle style="" cx="282" cy="562" r="13.333333333333332" class="stone placeholder J1" ></circle><circle style="" cx="310" cy="58" r="13.333333333333332" class="stone placeholder K19" ></circle><circle style="" cx="310" cy="86" r="13.333333333333332" class="stone placeholder K18" ></circle><circle style="" cx="310" cy="114" r="13.333333333333332" class="stone placeholder K17" ></circle><circle style="" cx="310" cy="142" r="13.333333333333332" class="stone placeholder K16" ></circle><circle style="" cx="310" cy="170" r="13.333333333333332" class="stone placeholder K15" ></circle><circle style="" cx="310" cy="198" r="13.333333333333332" class="stone placeholder K14" ></circle><circle style="" cx="310" cy="226" r="13.333333333333332" class="stone placeholder K13" ></circle><circle style="" cx="310" cy="254" r="13.333333333333332" class="stone placeholder K12" ></circle><circle style="" cx="310" cy="282" r="13.333333333333332" class="stone placeholder K11" ></circle><circle style="" cx="310" cy="310" r="13.333333333333332" class="stone placeholder K10" ></circle><circle style="" cx="310" cy="338" r="13.333333333333332" class="stone placeholder K9" ></circle><circle style="" cx="310" cy="366" r="13.333333333333332" class="stone placeholder K8" ></circle><circle style="" cx="310" cy="394" r="13.333333333333332" class="stone placeholder K7" ></circle><circle style="" cx="310" cy="422" r="13.333333333333332" class="stone placeholder K6" ></circle><circle style="" cx="310" cy="450" r="13.333333333333332" class="stone placeholder K5" ></circle><circle style="" cx="310" cy="478" r="13.333333333333332" class="stone placeholder K4" ></circle><circle style="" cx="310" cy="506" r="13.333333333333332" class="stone placeholder K3" ></circle><circle style="" cx="310" cy="534" r="13.333333333333332" class="stone placeholder K2" ></circle><circle style="" cx="310" cy="562" r="13.333333333333332" class="stone placeholder K1" ></circle><circle style="" cx="338" cy="58" r="13.333333333333332" class="stone placeholder L19" ></circle><circle style="" cx="338" cy="86" r="13.333333333333332" class="stone placeholder L18" ></circle><circle style="" cx="338" cy="114" r="13.333333333333332" class="stone placeholder L17" ></circle><circle style="" cx="338" cy="142" r="13.333333333333332" class="stone placeholder L16" ></circle><circle style="" cx="338" cy="170" r="13.333333333333332" class="stone placeholder L15" ></circle><circle style="" cx="338" cy="198" r="13.333333333333332" class="stone placeholder L14" ></circle><circle style="" cx="338" cy="226" r="13.333333333333332" class="stone placeholder L13" ></circle><circle style="" cx="338" cy="254" r="13.333333333333332" class="stone placeholder L12" ></circle><circle style="" cx="338" cy="282" r="13.333333333333332" class="stone placeholder L11" ></circle><circle style="" cx="338" cy="310" r="13.333333333333332" class="stone placeholder L10" ></circle><circle style="" cx="338" cy="338" r="13.333333333333332" class="stone placeholder L9" ></circle><circle style="" cx="338" cy="366" r="13.333333333333332" class="stone placeholder L8" ></circle><circle style="" cx="338" cy="394" r="13.333333333333332" class="stone placeholder L7" ></circle><circle style="" cx="338" cy="422" r="13.333333333333332" class="stone placeholder L6" ></circle><circle style="" cx="338" cy="450" r="13.333333333333332" class="stone placeholder L5" ></circle><circle style="" cx="338" cy="478" r="13.333333333333332" class="stone placeholder L4" ></circle><circle style="" cx="338" cy="506" r="13.333333333333332" class="stone placeholder L3" ></circle><circle style="" cx="338" cy="534" r="13.333333333333332" class="stone placeholder L2" ></circle><circle style="" cx="338" cy="562" r="13.333333333333332" class="stone placeholder L1" ></circle><circle style="" cx="366" cy="58" r="13.333333333333332" class="stone placeholder M19" ></circle><circle style="" cx="366" cy="86" r="13.333333333333332" class="stone placeholder M18" ></circle><circle style="" cx="366" cy="114" r="13.333333333333332" class="stone placeholder M17" ></circle><circle style="" cx="366" cy="142" r="13.333333333333332" class="stone placeholder M16" ></circle><circle style="" cx="366" cy="170" r="13.333333333333332" class="stone placeholder M15" ></circle><circle style="" cx="366" cy="198" r="13.333333333333332" class="stone placeholder M14" ></circle><circle style="" cx="366" cy="226" r="13.333333333333332" class="stone placeholder M13" ></circle><circle style="" cx="366" cy="254" r="13.333333333333332" class="stone placeholder M12" ></circle><circle style="" cx="366" cy="282" r="13.333333333333332" class="stone placeholder M11" ></circle><circle style="" cx="366" cy="310" r="13.333333333333332" class="stone placeholder M10" ></circle><circle style="" cx="366" cy="338" r="13.333333333333332" class="stone placeholder M9" ></circle><circle style="" cx="366" cy="366" r="13.333333333333332" class="stone placeholder M8" ></circle><circle style="" cx="366" cy="394" r="13.333333333333332" class="stone placeholder M7" ></circle><circle style="" cx="366" cy="422" r="13.333333333333332" class="stone placeholder M6" ></circle><circle style="" cx="366" cy="450" r="13.333333333333332" class="stone placeholder M5" ></circle><circle style="" cx="366" cy="478" r="13.333333333333332" class="stone placeholder M4" ></circle><circle style="" cx="366" cy="506" r="13.333333333333332" class="stone blackstone M3" ></circle><circle style="" cx="366" cy="534" r="13.333333333333332" class="stone placeholder M2" ></circle><circle style="" cx="366" cy="562" r="13.333333333333332" class="stone placeholder M1" ></circle><circle style="" cx="394" cy="58" r="13.333333333333332" class="stone placeholder N19" ></circle><circle style="" cx="394" cy="86" r="13.333333333333332" class="stone placeholder N18" ></circle><circle style="" cx="394" cy="114" r="13.333333333333332" class="stone placeholder N17" ></circle><circle style="" cx="394" cy="142" r="13.333333333333332" class="stone placeholder N16" ></circle><circle style="" cx="394" cy="170" r="13.333333333333332" class="stone placeholder N15" ></circle><circle style="" cx="394" cy="198" r="13.333333333333332" class="stone placeholder N14" ></circle><circle style="" cx="394" cy="226" r="13.333333333333332" class="stone placeholder N13" ></circle><circle style="" cx="394" cy="254" r="13.333333333333332" class="stone placeholder N12" ></circle><circle style="" cx="394" cy="282" r="13.333333333333332" class="stone placeholder N11" ></circle><circle style="" cx="394" cy="310" r="13.333333333333332" class="stone placeholder N10" ></circle><circle style="" cx="394" cy="338" r="13.333333333333332" class="stone placeholder N9" ></circle><circle style="" cx="394" cy="366" r="13.333333333333332" class="stone placeholder N8" ></circle><circle style="" cx="394" cy="394" r="13.333333333333332" class="stone placeholder N7" ></circle><circle style="" cx="394" cy="422" r="13.333333333333332" class="stone placeholder N6" ></circle><circle style="" cx="394" cy="450" r="13.333333333333332" class="stone placeholder N5" ></circle><circle style="" cx="394" cy="478" r="13.333333333333332" class="stone placeholder N4" ></circle><circle style="" cx="394" cy="506" r="13.333333333333332" class="stone placeholder N3" ></circle><circle style="" cx="394" cy="534" r="13.333333333333332" class="stone placeholder N2" ></circle><circle style="" cx="394" cy="562" r="13.333333333333332" class="stone placeholder N1" ></circle><circle style="" cx="422" cy="58" r="13.333333333333332" class="stone placeholder O19" ></circle><circle style="" cx="422" cy="86" r="13.333333333333332" class="stone placeholder O18" ></circle><circle style="" cx="422" cy="114" r="13.333333333333332" class="stone placeholder O17" ></circle><circle style="" cx="422" cy="142" r="13.333333333333332" class="stone placeholder O16" ></circle><circle style="" cx="422" cy="170" r="13.333333333333332" class="stone placeholder O15" ></circle><circle style="" cx="422" cy="198" r="13.333333333333332" class="stone placeholder O14" ></circle><circle style="" cx="422" cy="226" r="13.333333333333332" class="stone placeholder O13" ></circle><circle style="" cx="422" cy="254" r="13.333333333333332" class="stone placeholder O12" ></circle><circle style="" cx="422" cy="282" r="13.333333333333332" class="stone placeholder O11" ></circle><circle style="" cx="422" cy="310" r="13.333333333333332" class="stone placeholder O10" ></circle><circle style="" cx="422" cy="338" r="13.333333333333332" class="stone placeholder O9" ></circle><circle style="" cx="422" cy="366" r="13.333333333333332" class="stone placeholder O8" ></circle><circle style="" cx="422" cy="394" r="13.333333333333332" class="stone placeholder O7" ></circle><circle style="" cx="422" cy="422" r="13.333333333333332" class="stone placeholder O6" ></circle><circle style="" cx="422" cy="450" r="13.333333333333332" class="stone placeholder O5" ></circle><circle style="" cx="422" cy="478" r="13.333333333333332" class="stone blackstone O4" ></circle><circle style="" cx="422" cy="506" r="13.333333333333332" class="stone placeholder O3" ></circle><circle style="" cx="422" cy="534" r="13.333333333333332" class="stone placeholder O2" ></circle><circle style="" cx="422" cy="562" r="13.333333333333332" class="stone placeholder O1" ></circle><circle style="" cx="450" cy="58" r="13.333333333333332" class="stone placeholder P19" ></circle><circle style="" cx="450" cy="86" r="13.333333333333332" class="stone placeholder P18" ></circle><circle style="" cx="450" cy="114" r="13.333333333333332" class="stone placeholder P17" ></circle><circle style="" cx="450" cy="142" r="13.333333333333332" class="stone placeholder P16" ></circle><circle style="" cx="450" cy="170" r="13.333333333333332" class="stone placeholder P15" ></circle><circle style="" cx="450" cy="198" r="13.333333333333332" class="stone placeholder P14" ></circle><circle style="" cx="450" cy="226" r="13.333333333333332" class="stone placeholder P13" ></circle><circle style="" cx="450" cy="254" r="13.333333333333332" class="stone placeholder P12" ></circle><circle style="" cx="450" cy="282" r="13.333333333333332" class="stone placeholder P11" ></circle><circle style="" cx="450" cy="310" r="13.333333333333332" class="stone placeholder P10" ></circle><circle style="" cx="450" cy="338" r="13.333333333333332" class="stone placeholder P9" ></circle><circle style="" cx="450" cy="366" r="13.333333333333332" class="stone placeholder P8" ></circle><circle style="" cx="450" cy="394" r="13.333333333333332" class="stone placeholder P7" ></circle><circle style="" cx="450" cy="422" r="13.333333333333332" class="stone placeholder P6" ></circle><circle style="" cx="450" cy="450" r="13.333333333333332" class="stone placeholder P5" ></circle><circle style="" cx="450" cy="478" r="13.333333333333332" class="stone blackstone P4" ></circle><circle style="" cx="450" cy="506" r="13.333333333333332" class="stone whitestone P3" ></circle><circle style="" cx="450" cy="534" r="13.333333333333332" class="stone placeholder P2" ></circle><circle style="" cx="450" cy="562" r="13.333333333333332" class="stone placeholder P1" ></circle><circle style="" cx="478" cy="58" r="13.333333333333332" class="stone placeholder Q19" ></circle><circle style="" cx="478" cy="86" r="13.333333333333332" class="stone placeholder Q18" ></circle><circle style="" cx="478" cy="114" r="13.333333333333332" class="stone placeholder Q17" ></circle><circle style="" cx="478" cy="142" r="13.333333333333332" class="stone whitestone Q16" ></circle><circle style="" cx="478" cy="170" r="13.333333333333332" class="stone placeholder Q15" ></circle><circle style="" cx="478" cy="198" r="13.333333333333332" class="stone placeholder Q14" ></circle><circle style="" cx="478" cy="226" r="13.333333333333332" class="stone placeholder Q13" ></circle><circle style="" cx="478" cy="254" r="13.333333333333332" class="stone placeholder Q12" ></circle><circle style="" cx="478" cy="282" r="13.333333333333332" class="stone placeholder Q11" ></circle><circle style="" cx="478" cy="310" r="13.333333333333332" class="stone whitestone Q10" ></circle><circle style="" cx="478" cy="338" r="13.333333333333332" class="stone placeholder Q9" ></circle><circle style="" cx="478" cy="366" r="13.333333333333332" class="stone placeholder Q8" ></circle><circle style="" cx="478" cy="394" r="13.333333333333332" class="stone placeholder Q7" ></circle><circle style="" cx="478" cy="422" r="13.333333333333332" class="stone placeholder Q6" ></circle><circle style="" cx="478" cy="450" r="13.333333333333332" class="stone placeholder Q5" ></circle><circle style="" cx="478" cy="478" r="13.333333333333332" class="stone placeholder Q4" ></circle><circle style="" cx="478" cy="506" r="13.333333333333332" class="stone whitestone Q3" ></circle><circle style="" cx="478" cy="534" r="13.333333333333332" class="stone placeholder Q2" ></circle><circle style="" cx="478" cy="562" r="13.333333333333332" class="stone placeholder Q1" ></circle><circle style="" cx="506" cy="58" r="13.333333333333332" class="stone placeholder R19" ></circle><circle style="" cx="506" cy="86" r="13.333333333333332" class="stone placeholder R18" ></circle><circle style="" cx="506" cy="114" r="13.333333333333332" class="stone placeholder R17" ></circle><circle style="" cx="506" cy="142" r="13.333333333333332" class="stone placeholder R16" ></circle><circle style="" cx="506" cy="170" r="13.333333333333332" class="stone placeholder R15" ></circle><circle style="" cx="506" cy="198" r="13.333333333333332" class="stone placeholder R14" ></circle><circle style="" cx="506" cy="226" r="13.333333333333332" class="stone placeholder R13" ></circle><circle style="" cx="506" cy="254" r="13.333333333333332" class="stone placeholder R12" ></circle><circle style="" cx="506" cy="282" r="13.333333333333332" class="stone placeholder R11" ></circle><circle style="" cx="506" cy="310" r="13.333333333333332" class="stone placeholder R10" ></circle><circle style="" cx="506" cy="338" r="13.333333333333332" class="stone placeholder R9" ></circle><circle style="" cx="506" cy="366" r="13.333333333333332" class="stone placeholder R8" ></circle><circle style="" cx="506" cy="394" r="13.333333333333332" class="stone placeholder R7" ></circle><circle style="" cx="506" cy="422" r="13.333333333333332" class="stone placeholder R6" ></circle><circle style="" cx="506" cy="450" r="13.333333333333332" class="stone placeholder R5" ></circle><circle style="" cx="506" cy="478" r="13.333333333333332" class="stone whitestone R4" ></circle><circle style="" cx="506" cy="506" r="13.333333333333332" class="stone placeholder R3" ></circle><circle style="" cx="506" cy="534" r="13.333333333333332" class="stone placeholder R2" ></circle><circle style="" cx="506" cy="562" r="13.333333333333332" class="stone placeholder R1" ></circle><circle style="" cx="534" cy="58" r="13.333333333333332" class="stone placeholder S19" ></circle><circle style="" cx="534" cy="86" r="13.333333333333332" class="stone placeholder S18" ></circle><circle style="" cx="534" cy="114" r="13.333333333333332" class="stone blackstone S17" ></circle><circle style="" cx="534" cy="142" r="13.333333333333332" class="stone placeholder S16" ></circle><circle style="" cx="534" cy="170" r="13.333333333333332" class="stone placeholder S15" ></circle><circle style="" cx="534" cy="198" r="13.333333333333332" class="stone placeholder S14" ></circle><circle style="" cx="534" cy="226" r="13.333333333333332" class="stone placeholder S13" ></circle><circle style="" cx="534" cy="254" r="13.333333333333332" class="stone placeholder S12" ></circle><circle style="" cx="534" cy="282" r="13.333333333333332" class="stone placeholder S11" ></circle><circle style="" cx="534" cy="310" r="13.333333333333332" class="stone placeholder S10" ></circle><circle style="" cx="534" cy="338" r="13.333333333333332" class="stone placeholder S9" ></circle><circle style="" cx="534" cy="366" r="13.333333333333332" class="stone placeholder S8" ></circle><circle style="" cx="534" cy="394" r="13.333333333333332" class="stone placeholder S7" ></circle><circle style="" cx="534" cy="422" r="13.333333333333332" class="stone placeholder S6" ></circle><circle style="" cx="534" cy="450" r="13.333333333333332" class="stone placeholder S5" ></circle><circle style="" cx="534" cy="478" r="13.333333333333332" class="stone placeholder S4" ></circle><circle style="" cx="534" cy="506" r="13.333333333333332" class="stone placeholder S3" ></circle><circle style="" cx="534" cy="534" r="13.333333333333332" class="stone placeholder S2" ></circle><circle style="" cx="534" cy="562" r="13.333333333333332" class="stone placeholder S1" ></circle><circle style="" cx="562" cy="58" r="13.333333333333332" class="stone placeholder T19" ></circle><circle style="" cx="562" cy="86" r="13.333333333333332" class="stone placeholder T18" ></circle><circle style="" cx="562" cy="114" r="13.333333333333332" class="stone placeholder T17" ></circle><circle style="" cx="562" cy="142" r="13.333333333333332" class="stone placeholder T16" ></circle><circle style="" cx="562" cy="170" r="13.333333333333332" class="stone placeholder T15" ></circle><circle style="" cx="562" cy="198" r="13.333333333333332" class="stone placeholder T14" ></circle><circle style="" cx="562" cy="226" r="13.333333333333332" class="stone placeholder T13" ></circle><circle style="" cx="562" cy="254" r="13.333333333333332" class="stone placeholder T12" ></circle><circle style="" cx="562" cy="282" r="13.333333333333332" class="stone placeholder T11" ></circle><circle style="" cx="562" cy="310" r="13.333333333333332" class="stone placeholder T10" ></circle><circle style="" cx="562" cy="338" r="13.333333333333332" class="stone placeholder T9" ></circle><circle style="" cx="562" cy="366" r="13.333333333333332" class="stone placeholder T8" ></circle><circle style="" cx="562" cy="394" r="13.333333333333332" class="stone placeholder T7" ></circle><circle style="" cx="562" cy="422" r="13.333333333333332" class="stone placeholder T6" ></circle><circle style="" cx="562" cy="450" r="13.333333333333332" class="stone placeholder T5" ></circle><circle style="" cx="562" cy="478" r="13.333333333333332" class="stone placeholder T4" ></circle><circle style="" cx="562" cy="506" r="13.333333333333332" class="stone placeholder T3" ></circle><circle style="" cx="562" cy="534" r="13.333333333333332" class="stone placeholder T2" ></circle><circle style="" cx="562" cy="562" r="13.333333333333332" class="stone placeholder T1" ></circle></g><g class="markers_layer"></g></g></svg>
